<?xml version="1.0" encoding="UTF-8" standalone="no"?>
<svg
   viewBox="0 0 499.99999 420.00002"
   width="500"
   height="420"
   version="1.1"
   id="svg60"
   sodipodi:docname="Stealthchanger_tophat_logo.svg"
   inkscape:version="1.3.2 (091e20e, 2023-11-25)"
   inkscape:export-filename="Stealthchanger_tophat_logo.png"
   inkscape:export-xdpi="96"
   inkscape:export-ydpi="96"
   xmlns:inkscape="http://www.inkscape.org/namespaces/inkscape"
   xmlns:sodipodi="http://sodipodi.sourceforge.net/DTD/sodipodi-0.dtd"
   xmlns="http://www.w3.org/2000/svg"
   xmlns:svg="http://www.w3.org/2000/svg">
  <sodipodi:namedview
     id="namedview60"
     pagecolor="#ffffff"
     bordercolor="#000000"
     borderopacity="0.25"
     inkscape:showpageshadow="2"
     inkscape:pageopacity="0.0"
     inkscape:pagecheckerboard="0"
     inkscape:deskcolor="#d1d1d1"
     inkscape:zoom="1"
     inkscape:cx="329"
     inkscape:cy="165"
     inkscape:window-width="1728"
     inkscape:window-height="933"
     inkscape:window-x="2041"
     inkscape:window-y="56"
     inkscape:window-maximized="0"
     inkscape:current-layer="g60" />
  <desc
     id="desc1">Stealthchanger_tophat_logo.dxf - scale = 1.000000, origin = (0.000000, 0.000000), method = manual</desc>
  <defs
     id="defs4">
    <marker
       id="DistanceX"
       orient="auto"
       refX="0"
       refY="0"
       style="overflow:visible">
      <path
         d="M 3,-3 -3,3 M 0,-5 V 5"
         style="stroke:#000000;stroke-width:0.5"
         id="path1" />
    </marker>
    <pattern
       id="Hatch"
       patternUnits="userSpaceOnUse"
       width="8"
       height="8"
       x="0"
       y="0">
      <path
         d="M8 4 l-4,4"
         stroke="#000000"
         stroke-width="0.25"
         linecap="square"
         id="path2" />
      <path
         d="M6 2 l-4,4"
         stroke="#000000"
         stroke-width="0.25"
         linecap="square"
         id="path3" />
      <path
         d="M4 0 l-4,4"
         stroke="#000000"
         stroke-width="0.25"
         linecap="square"
         id="path4" />
    </pattern>
    <symbol
       id="*MODEL_SPACE" />
    <symbol
       id="*PAPER_SPACE" />
    <inkscape:path-effect
       effect="fill_between_many"
       method="originald"
       linkedpaths="#g3,0,1"
       id="path-effect73"
       is_visible="true"
       lpeversion="0"
       join="true"
       close="true"
       autoreverse="true" />
    <inkscape:path-effect
       effect="fill_between_many"
       method="originald"
       linkedpaths="#g3,0,1"
       id="path-effect74"
       is_visible="true"
       lpeversion="0"
       join="true"
       close="true"
       autoreverse="true" />
    <inkscape:path-effect
       effect="fill_between_many"
       method="originald"
       linkedpaths="#path55,0,1"
       id="path-effect75"
       is_visible="true"
       lpeversion="0"
       join="true"
       close="true"
       autoreverse="true" />
    <inkscape:path-effect
       effect="fill_between_many"
       method="originald"
       linkedpaths="#g4,0,1"
       id="path-effect80"
       is_visible="true"
       lpeversion="0"
       join="true"
       close="true"
       autoreverse="true" />
    <inkscape:path-effect
       effect="fill_between_many"
       method="originald"
       linkedpaths="#path111,0,1"
       id="path-effect127"
       is_visible="true"
       lpeversion="0"
       join="true"
       close="true"
       autoreverse="true" />
  </defs>
  <g
     inkscape:groupmode="layer"
     inkscape:label="0"
     id="g60">
    <path
       id="path111"
       style="fill:#db3f38;fill-opacity:1;stroke:#db3f38;stroke-opacity:1"
       transform="matrix(0.5688132,0,0,-0.5688132,119.46317,329.7908)"
       d="M 76.201237,136.1742 32.807643,121.16936 13.327891,98.61061 l 19.448502,-22.975 87.097497,-29.6025 103.60844,-7.977344 103.56156,7.914844 87.0975,29.50875 19.60475,23.1 -19.72975,22.74625 -43.585,14.57125 -6.5785,-20.03125 -64.82155,-22.105 -75.38495,-5.76875 -75.75995,5.83125 -64.759047,22.105 z"
       sodipodi:nodetypes="ccccccccccccccccc" />
    <path
       style="fill:#db3f38;stroke:#db3f38;stroke-width:0.568813;fill-opacity:1;stroke-opacity:1"
       d="m 171.70558,259.0952 -2.88115,-8.62654 v -15.03534 l 2.88115,4.31327 33.19246,11.26716 41.72482,3.20278 41.72482,-3.20278 33.19245,-11.26716 2.88116,-4.31327 v 15.03534 l -2.88116,8.62654 -33.19245,11.26716 -41.72482,3.20278 -41.72482,-3.20278 z"
       id="path110" />
    <path
       style="fill:#db3f38;stroke:#db3f38;fill-opacity:1;stroke-opacity:1"
       d="m 223.66638,144.20186 73.35419,5.64625 58.40255,20.00497 4.91877,15.09501 -0.0156,162.41691 -4.90315,14.96438 -58.43504,19.95623 -73.28921,5.64625 -73.41919,-5.61375 -58.288805,-19.68002 -5.21123,-15.41371 -0.01625,-162.30878 5.227479,-15.41997 58.305056,-19.68002 z"
       transform="matrix(0.5688132,0,0,-0.5688132,119.46317,329.7908)"
       id="path55" />
    <path
       d="M 418.17469,266.82323 389.82823,250.45739 V 128.30114 L 248.09595,46.47197 106.36367,128.30114 78.01721,111.93531 248.09595,13.74028 418.17469,111.93531 v 98.19501 h 56.69291 z"
       style="fill:#db3f38;stroke:#db3f38;fill-opacity:1;stroke-opacity:1"
       id="path56" />
    <path
       d="m 78.01721,153.4374 28.34646,16.36584 v 122.15625 l 141.73228,81.82917 141.73228,-81.82917 28.34646,16.36583 -170.07874,98.19501 -170.07874,-98.19501 v -98.195 H 21.3243 Z"
       style="fill:#db3f38;stroke:#db3f38;fill-opacity:1;stroke-opacity:1"
       id="path58" />
  </g>
</svg>
